<?xml version="1.0" encoding="UTF-8" standalone="no"?>
<!-- Created with Inkscape (http://www.inkscape.org/) -->

<svg
   xmlns:dc="http://purl.org/dc/elements/1.1/"
   xmlns:cc="http://creativecommons.org/ns#"
   xmlns:rdf="http://www.w3.org/1999/02/22-rdf-syntax-ns#"
   xmlns:svg="http://www.w3.org/2000/svg"
   xmlns="http://www.w3.org/2000/svg"
   xmlns:sodipodi="http://sodipodi.sourceforge.net/DTD/sodipodi-0.dtd"
   xmlns:inkscape="http://www.inkscape.org/namespaces/inkscape"
   width="50mm"
   height="50mm"
   viewBox="0 0 50 50"
   version="1.1"
   id="svg8"
   inkscape:version="0.92.4 (5da689c313, 2019-01-14)"
   sodipodi:docname="WM-enabled.svg">
  <defs
     id="defs2" />
  <sodipodi:namedview
     id="base"
     pagecolor="#ffffff"
     bordercolor="#666666"
     borderopacity="1.0"
     inkscape:pageopacity="0.0"
     inkscape:pageshadow="2"
     inkscape:zoom="1.4"
     inkscape:cx="-53.428039"
     inkscape:cy="123.90225"
     inkscape:document-units="mm"
     inkscape:current-layer="layer1"
     showgrid="false"
     inkscape:window-width="2560"
     inkscape:window-height="1377"
     inkscape:window-x="-8"
     inkscape:window-y="-8"
     inkscape:window-maximized="1" />
  <metadata
     id="metadata5">
    <rdf:RDF>
      <cc:Work
         rdf:about="">
        <dc:format>image/svg+xml</dc:format>
        <dc:type
           rdf:resource="http://purl.org/dc/dcmitype/StillImage" />
        <dc:title></dc:title>
      </cc:Work>
    </rdf:RDF>
  </metadata>
  <g
     inkscape:label="Ebene 1"
     inkscape:groupmode="layer"
     id="layer1"
     transform="translate(0,-247)">
    <path
       style="fill:#00ff00;stroke-width:0.10424614"
       d="m 2.6179136,296.70664 c -1.1153859,-0.33524 -2.02645116,-1.21287 -2.25510526,-2.17235 -0.085495,-0.3589 -0.1125908,-7.07587 -0.091677,-22.79465 l 0.029594,-22.2858 0.2391897,-0.44887 c 0.3433232,-0.64427 0.97179336,-1.20378 1.70129256,-1.51463 L 2.8746889,247.2204 H 25.0891 47.303508 l 0.633476,0.26994 c 0.729505,0.31085 1.357969,0.87036 1.701292,1.51463 l 0.239195,0.44887 v 22.57712 22.57714 l -0.311093,0.54966 c -0.358244,0.63299 -1.003068,1.17831 -1.745572,1.47622 l -0.517298,0.20754 -22.046547,0.0216 C 4.1291826,296.88372 3.1857345,296.87722 2.6178478,296.7066 Z M 47.4565,295.15178 c 0.207214,-0.12824 0.470496,-0.41227 0.585076,-0.63119 0.200662,-0.38338 0.208414,-1.04188 0.210783,-17.90138 l 0.0025,-17.50333 H 28.517551 8.7802891 L 8.485409,258.91462 c -0.3729439,-0.25456 -0.3958435,-0.71256 -0.05156,-1.03058 l 0.243333,-0.22476 H 20.52028 32.363385 v -4.51649 -4.51649 l -14.632412,0.0253 -14.6324175,0.0253 -0.3767453,0.23315 c -0.7784026,0.48171 -0.7931078,0.57213 -0.7958699,4.88917 l -0.00263,3.85997 h 1.7346356 c 1.5854132,0 1.7538786,0.0168 1.9584493,0.19421 0.3332347,0.28915 0.2984315,0.80894 -0.071027,1.06112 -0.2682845,0.18311 -0.4449049,0.20127 -1.9584493,0.20127 h -1.663583 l 0.00263,17.50333 c 0.00263,16.85949 0.010522,17.51798 0.2107921,17.90138 0.1916544,0.36618 0.6031239,0.70707 1.0177765,0.84321 0.092335,0.0302 10.0132725,0.0474 22.0465375,0.0381 l 21.87868,-0.0169 z m -24.753957,-2.78147 c -2.123193,-0.251 -4.494085,-0.95089 -6.332827,-1.86947 -1.282339,-0.64061 -2.55772,-1.47901 -2.698511,-1.77393 -0.221893,-0.46484 0.184394,-0.96479 0.784032,-0.96479 0.129953,0 0.724962,0.30475 1.322324,0.67724 1.833903,1.14351 3.840137,1.91114 6.157628,2.35605 1.56129,0.29973 4.746657,0.29973 6.307945,0 3.276638,-0.62905 5.708636,-1.77886 8.046043,-3.80407 2.516904,-2.18075 3.960401,-4.62208 4.538766,-7.67628 0.234487,-1.23826 0.14837,-3.77109 -0.168847,-4.96614 -0.501712,-1.89011 -1.453078,-3.71327 -2.755055,-5.27968 -0.399526,-0.48069 -0.726868,-0.97427 -0.727431,-1.09687 -0.0013,-0.29166 0.475725,-0.6996 0.818138,-0.6996 0.423776,0 0.795196,0.32151 1.64433,1.42336 1.344166,1.74422 2.175371,3.45767 2.701219,5.56826 0.217628,0.87351 0.254033,1.30489 0.254033,3.01029 0,1.69094 -0.03721,2.13905 -0.247106,2.97608 -0.506757,2.02084 -1.408174,3.86539 -2.72169,5.56932 -0.861299,1.1173 -2.731473,2.81673 -4.014547,3.64801 -3.691227,2.39149 -8.356327,3.44034 -12.908444,2.90222 z m -0.243294,-3.63646 c -4.462583,-0.78502 -8.144553,-3.42776 -9.877269,-7.08941 -2.004341,-4.23564 -0.91701,-9.14389 2.761962,-12.4676 1.924751,-1.73889 4.259459,-2.86861 7.077518,-3.42468 1.140153,-0.22498 4.195253,-0.22498 5.335404,0 4.802908,0.94773 8.482063,3.74552 10.073276,7.66014 1.303128,3.2059 0.902821,6.77579 -1.090243,9.72274 -2.022037,2.98978 -5.424119,5.05488 -9.303379,5.64727 -1.31019,0.20005 -3.696574,0.17682 -4.977269,-0.0485 z m 5.098611,-1.45739 c 2.539935,-0.47035 4.93043,-1.71242 6.522053,-3.38879 0.654028,-0.68883 1.417007,-1.65024 1.417007,-1.78551 0,-0.0326 -0.188853,0.0128 -0.419669,0.10112 -0.295851,0.11321 -0.751753,0.16182 -1.545261,0.16497 l -1.125595,0.005 -1.301558,-0.57239 c -1.259844,-0.55404 -1.323231,-0.57067 -1.978013,-0.51917 -0.516462,0.0406 -0.863328,0.14672 -1.466537,0.44848 -1.855258,0.92813 -3.279536,0.92908 -5.122145,0.003 -0.609464,-0.30616 -0.947684,-0.40948 -1.476808,-0.45111 -0.667035,-0.0525 -0.722818,-0.0379 -1.987847,0.51838 l -1.301555,0.5724 -1.125593,-0.005 c -0.805077,-0.003 -1.248417,-0.0514 -1.556923,-0.16919 -0.398054,-0.15203 -0.425833,-0.15234 -0.360278,-0.005 0.191312,0.43261 1.1844,1.57446 1.960699,2.25443 2.846746,2.49348 6.931531,3.55605 10.868023,2.82707 z m -9.570546,-6.63351 c 1.556529,-0.74764 1.719628,-0.79289 2.860821,-0.79395 l 1.074782,-10e-4 1.295926,0.57008 c 1.250324,0.55003 1.321219,0.56869 2.01485,0.53036 0.596813,-0.033 0.859448,-0.11047 1.546202,-0.45621 1.075542,-0.54148 1.9352,-0.73374 2.951039,-0.65998 0.656572,0.0476 0.980407,0.1445 2.034962,0.60841 1.219387,0.5364 1.273932,0.55031 1.968875,0.50191 0.589971,-0.0411 0.869259,-0.12827 1.599821,-0.49936 0.48679,-0.24725 0.946709,-0.44956 1.022039,-0.44956 0.369154,0 0.685914,-2.3645 0.503372,-3.75745 -0.569127,-4.34285 -4.001025,-7.81077 -8.847841,-8.9407 -0.952221,-0.222 -1.289583,-0.25096 -2.922996,-0.25096 -1.633422,0 -1.970787,0.029 -2.923008,0.25096 -5.675131,1.32304 -9.462367,6.00595 -8.843945,10.93553 0.15159,1.20839 0.308467,1.76262 0.498911,1.76262 0.07497,0 0.488126,0.1801 0.91801,0.40021 1.009517,0.51692 1.204538,0.56911 2.017152,0.53995 0.490283,-0.0176 0.828477,-0.0976 1.231028,-0.29086 z m -6.829227,5.89312 c -0.750912,-0.65158 -2.2548687,-3.09662 -2.7959097,-4.54547 -0.6439117,-1.7243 -0.7800598,-2.56117 -0.7750748,-4.76446 0.00395,-1.72475 0.04209,-2.1866 0.2476078,-2.9948 1.0417546,-4.09632 3.6684497,-7.46108 7.5741157,-9.7023 1.79126,-1.02789 3.690875,-1.73231 5.874493,-2.17838 1.450581,-0.29632 4.668494,-0.41707 6.172287,-0.2316 2.621742,0.32334 5.134709,1.14521 7.324584,2.39551 1.021984,0.58351 1.115741,0.66267 1.222761,1.03266 0.06215,0.21488 0.01118,0.32063 -0.273599,0.56773 -0.443373,0.38472 -0.603794,0.35335 -1.820806,-0.3561 -3.862253,-2.25144 -8.914688,-2.90659 -13.374508,-1.73423 -2.674348,0.70301 -4.782152,1.81427 -6.803881,3.58714 -2.133728,1.87107 -3.584861,4.23268 -4.2668518,6.94395 -0.295985,1.1767 -0.296156,4.26113 -3.289e-4,5.43532 0.4513894,1.79153 1.2466157,3.42194 2.4314107,4.98504 0.363368,0.4794 0.660669,0.9469 0.660669,1.0389 0,0.092 -0.104305,0.28239 -0.231943,0.42311 -0.272125,0.30019 -0.87371,0.35078 -1.165052,0.0979 z m 12.961075,-30.79865 c -1.374227,-0.42583 -2.16352,-1.37015 -2.16352,-2.58847 0,-1.05228 0.598389,-1.91145 1.694466,-2.43293 0.515182,-0.24511 0.718043,-0.28499 1.439058,-0.28292 0.68599,0.002 0.944374,0.0495 1.414313,0.26025 2.297966,1.03057 2.294886,3.90162 -0.0053,4.87808 -0.798245,0.33888 -1.633155,0.39713 -2.379083,0.16599 z m 1.609788,-1.44479 c 1.164413,-0.47945 1.057024,-1.98936 -0.167814,-2.3596 -1.694541,-0.5122 -2.739952,1.66747 -1.12985,2.35572 0.481641,0.20588 0.804735,0.20684 1.297664,0.005 z m -20.2802317,1.241 c -0.5178915,-0.20739 -0.8859689,-0.5265 -1.0557101,-0.91522 -0.065634,-0.15036 -0.1191674,-0.84951 -0.1189044,-1.5537 4.209e-4,-1.44451 0.085758,-1.66236 0.8485614,-2.16731 l 0.4204006,-0.27829 5.9734842,-0.0267 c 5.670225,-0.0255 5.997962,-0.0174 6.455836,0.1584 0.265298,0.10181 0.627983,0.35063 0.805958,0.55288 0.315202,0.35821 0.324541,0.40231 0.35983,1.70073 0.03183,1.17263 0.0092,1.37802 -0.183946,1.7073 -0.269929,0.45894 -0.520391,0.66202 -1.055842,0.85615 -0.353017,0.12798 -1.241301,0.14906 -6.206978,0.14722 -5.394707,-0.002 -5.8259326,-0.0146 -6.2426634,-0.1814 z m 11.9745107,-2.38977 v -1.06816 l -5.651522,-0.0255 c -5.2136927,-0.0235 -5.6623593,-0.0127 -5.7914179,0.13995 -0.171359,0.20256 -0.1889842,1.61508 -0.023413,1.88341 0.1132485,0.18359 0.2704811,0.18803 5.7914189,0.16355 l 5.675012,-0.0252 z m 30.82913,0.65546 c -0.003,-4.31704 -0.01747,-4.40745 -0.795859,-4.88916 l -0.376755,-0.23316 -6.518837,-0.0266 -6.518835,-0.0266 v 4.51769 4.51771 h 7.106373 7.106371 l -0.0025,-3.85997 z m -11.222863,1.71285 c -0.516579,-0.26077 -0.45357,-1.01897 0.102963,-1.23899 0.187103,-0.0739 1.403726,-0.10968 3.735226,-0.10968 3.428162,0 3.460144,0.002 3.738016,0.21848 0.404795,0.31557 0.431659,0.7283 0.06795,1.0439 -0.214719,0.18631 -0.370631,0.19409 -3.832966,0.19124 -2.31227,-0.002 -3.681744,-0.0396 -3.811189,-0.10488 z m 0.07492,-3.50149 c -0.24518,-0.10306 -0.488389,-0.46197 -0.488389,-0.72082 0,-0.08 0.123613,-0.25276 0.274691,-0.38385 l 0.274696,-0.23835 h 3.629806 c 3.296344,0 3.652129,0.0157 3.872741,0.17069 0.364573,0.25616 0.345595,0.77231 -0.03896,1.05931 l -0.30358,0.22659 -3.490988,-0.006 c -2.159603,-0.005 -3.582152,-0.0448 -3.730027,-0.10694 z"
       id="path850"
       inkscape:connector-curvature="0" />
    <path
       style="fill:#000000;stroke-width:0.09744321"
       d="m -86.118462,303.59042 c -1.865326,-0.31795 -3.419232,-1.67603 -4.052734,-3.54203 -0.175688,-0.51746 -0.18212,-1.27239 -0.18212,-21.35981 0,-20.08742 0.006,-20.84234 0.18212,-21.35981 0.555958,-1.63758 1.736715,-2.82052 3.371272,-3.37751 0.51651,-0.176 1.270039,-0.18246 21.320323,-0.18246 h 20.784885 l 0.643367,0.22281 c 1.565078,0.54202 2.712902,1.71581 3.263348,3.33716 0.175688,0.51747 0.182119,1.27239 0.182119,21.35981 0,20.08742 -0.006,20.84235 -0.182119,21.35981 -0.543809,1.60182 -1.639708,2.72907 -3.254292,3.34741 l -0.555064,0.21257 -20.638866,0.0121 c -11.351366,0.006 -20.748369,-0.007 -20.882239,-0.0297 z m 41.974639,-1.75275 c 0.805249,-0.38221 1.384311,-0.96557 1.776104,-1.78928 l 0.301542,-0.63396 0.02551,-16.50753 0.02539,-16.50752 h -1.704786 -1.704787 v 15.95113 15.95116 l -0.238953,0.23939 -0.238966,0.2394 h -19.57682 -19.576826 l -0.238953,-0.2394 -0.238966,-0.23939 v -15.95116 -15.95113 h -1.704786 -1.704786 l 0.02551,16.50752 0.02539,16.50753 0.301276,0.63396 c 0.473519,0.99648 1.248217,1.66537 2.327263,2.00945 0.310972,0.0992 4.527268,0.12052 20.930912,0.10586 l 20.541506,-0.0183 z m -33.904558,-5.21087 c 0.289574,-1.15271 1.193004,-2.33038 2.171257,-2.83038 l 0.370152,-0.1892 -7.38e-4,-2.80209 -7.37e-4,-2.80212 -0.619636,-0.23371 c -0.85628,-0.32298 -1.932738,-1.06078 -2.052257,-1.40661 -0.122518,-0.35453 0.08971,-0.75776 0.469299,-0.89149 0.292584,-0.10307 0.242569,-0.12387 1.376357,0.57212 0.954037,0.58567 1.757739,0.79056 3.06661,0.78181 1.203494,-0.008 1.894447,-0.19133 2.981895,-0.79104 0.769995,-0.42464 1.99714,-1.71998 2.411201,-2.54519 0.646536,-1.28854 0.686456,-1.57061 0.689104,-4.86968 0.0024,-2.70046 -0.01209,-2.96118 -0.171469,-3.12107 -0.163067,-0.16366 -0.529035,-0.17447 -5.903984,-0.17447 -5.498244,0 -5.738431,0.007 -5.935058,0.1858 -0.199602,0.18098 -0.204897,0.26075 -0.203495,3.0723 0.0012,3.12791 0.05839,3.6115 0.55394,4.71788 0.295884,0.66053 0.246195,0.99224 -0.184961,1.23468 -0.443621,0.24947 -0.757446,0.0604 -1.122931,-0.67648 -0.602746,-1.21527 -0.639511,-1.48466 -0.68382,-5.01187 -0.03518,-2.80426 -0.02019,-3.26022 0.119568,-3.62691 0.168192,-0.44121 0.768423,-1.05886 1.182146,-1.21645 0.145754,-0.0556 2.661169,-0.0931 6.228549,-0.0931 6.457259,0 6.370418,-0.006 6.938454,0.51671 0.520693,0.47956 0.592494,0.83219 0.594804,2.92134 0.0011,1.05946 0.01825,1.92629 0.03796,1.92629 0.01971,0 0.336409,-0.20196 0.703841,-0.4488 6.515861,-4.37746 15.20923,-0.79632 16.834418,6.93477 0.215306,1.02425 0.217264,3.14243 0.0036,4.14517 -0.322469,1.51495 -0.899017,2.89461 -1.722787,4.12256 -0.54393,0.81083 -2.121399,2.37504 -2.906289,2.88188 l -0.631979,0.4081 h 3.284855 3.284854 v -12.43476 -12.43476 l -1.146107,-0.57558 c -1.445316,-0.72586 -1.996572,-0.88956 -2.984739,-0.8864 -0.80184,0.002 -1.039258,0.066 -2.732547,0.73037 -0.529688,0.20782 -0.90366,0.2783 -1.67895,0.31644 -1.235874,0.0608 -1.926488,-0.0681 -3.132851,-0.5844 -1.491197,-0.63828 -2.790844,-0.6294 -4.240222,0.0289 -0.902995,0.41019 -1.683859,0.57894 -2.679038,0.57894 -0.995167,0 -1.776031,-0.16875 -2.679026,-0.57894 -0.898847,-0.40831 -1.516851,-0.52599 -2.474878,-0.47127 -0.706174,0.0403 -0.995904,0.11289 -1.765344,0.44228 -1.206359,0.51636 -1.896973,0.64519 -3.132846,0.58439 -0.775303,-0.0381 -1.149263,-0.10864 -1.678951,-0.31644 -1.693276,-0.66434 -1.930706,-0.7278 -2.732558,-0.73037 -0.988167,-0.004 -1.539411,0.16053 -2.984727,0.88639 l -1.146107,0.57559 v 12.43619 12.43619 l 2.932209,-0.0258 2.932208,-0.0258 z m 8.187894,0.6105 c 0,-0.0441 -0.06976,-0.28523 -0.154991,-0.53586 -0.198985,-0.58506 -0.910043,-1.3765 -1.510649,-1.68141 -0.428908,-0.21775 -0.581879,-0.23826 -1.762826,-0.23629 -1.513308,0.002 -1.848472,0.11009 -2.558902,0.8219 -0.438265,0.43908 -0.827349,1.15618 -0.827349,1.52484 0,0.18073 0.114006,0.18698 3.40736,0.18698 1.874039,0 3.407357,-0.0361 3.407357,-0.0802 z m 4.84107,-0.36161 c -2.71995,-1.82804 -4.549369,-5.03282 -4.716909,-8.26308 -0.02998,-0.57667 -0.08451,-1.04849 -0.121417,-1.04849 -0.03687,0 -0.326375,0.10574 -0.643343,0.23487 l -0.576318,0.23486 -0.02587,2.74014 -0.02587,2.74015 0.512617,0.32923 c 1.088016,0.6988 1.868674,1.78305 2.132642,2.96204 l 0.11461,0.51205 h 2.003536 2.003548 z m 8.44762,0.15285 c 0.854346,-0.2256 2.334287,-0.89791 3.025748,-1.37452 0.242641,-0.16725 0.728128,-0.57304 1.078864,-0.90174 3.081493,-2.88792 3.88783,-7.3656 2.00576,-11.13826 -0.913936,-1.83204 -2.610815,-3.49444 -4.430575,-4.34059 -1.754124,-0.81564 -3.985721,-1.08597 -5.818598,-0.70488 -1.146059,0.23828 -2.261265,0.67778 -3.1929,1.25831 -0.934936,0.58257 -1.868167,1.44872 -1.868167,1.73386 0,0.48349 -0.412478,1.81148 -0.819527,2.63849 -0.283021,0.57504 -0.652725,1.12282 -1.07184,1.58816 l -0.639813,0.71034 -0.01088,0.65512 c -0.04183,2.45067 0.315155,3.92614 1.362429,5.63018 1.416675,2.30509 3.709253,3.8736 6.411696,4.38669 1.045061,0.19842 2.937021,0.13112 3.968119,-0.14116 z m -3.748085,-1.80962 c -2.316551,-0.47421 -4.277011,-1.97953 -5.300093,-4.06961 -1.012044,-2.06753 -0.997899,-4.56018 0.03772,-6.65749 0.928129,-1.87954 2.725716,-3.3627 4.726882,-3.90011 1.516501,-0.40723 3.394062,-0.26723 4.915132,0.36653 1.137995,0.47414 1.417462,0.89934 0.967663,1.47223 -0.267075,0.34015 -0.602226,0.33132 -1.339882,-0.0354 -1.151656,-0.57246 -2.701827,-0.74149 -3.996372,-0.43577 -1.889324,0.44619 -3.689147,2.07436 -4.288351,3.87936 -0.91986,2.77092 0.153793,5.70684 2.63711,7.21118 2.301004,1.39391 5.376187,1.01537 7.267662,-0.8946 1.587395,-1.60293 2.162637,-3.60867 1.652402,-5.76157 -0.126652,-0.53439 -0.574988,-1.55723 -0.855639,-1.95211 -0.583197,-0.82054 0.38507,-1.69002 1.066266,-0.95749 0.342297,0.3681 0.978991,1.7079 1.183997,2.4915 0.256556,0.98064 0.278705,2.62061 0.04848,3.58793 -0.224833,0.94455 -0.91396,2.31366 -1.553097,3.0856 -1.723211,2.08125 -4.570731,3.10184 -7.169892,2.56977 z m -12.191837,-4.36305 0.02599,-2.51149 h -0.780474 -0.780465 v 2.53998 2.53997 l 0.754485,-0.0285 0.75448,-0.0285 z m -10.493683,-20.54938 c 1.285707,-0.6299 2.177845,-0.82914 3.401061,-0.75958 0.678947,0.0386 1.119171,0.12406 1.614874,0.31346 1.850032,0.70686 1.994456,0.74524 2.813222,0.74752 0.822706,0.002 0.814558,0.005 2.930609,-0.76706 0.83065,-0.30286 2.186176,-0.40314 3.088554,-0.22848 0.335974,0.065 1.027047,0.30124 1.535711,0.52491 0.923354,0.40601 0.926836,0.40668 2.14177,0.40698 1.214487,2.9e-4 1.218766,-3.7e-4 2.14177,-0.40518 0.508663,-0.22303 1.199737,-0.45937 1.535711,-0.52522 0.911191,-0.17858 2.253975,-0.0772 3.112902,0.23517 2.104243,0.76512 2.0617,0.75405 2.89947,0.75405 0.836429,0 0.964447,-0.0337 2.820017,-0.74269 0.495703,-0.1894 0.935927,-0.27485 1.614874,-0.31346 1.223216,-0.0695 2.115354,0.12968 3.401049,0.75958 0.54098,0.26504 1.002723,0.48188 1.026117,0.48188 0.02345,0 0.04256,-0.98752 0.04256,-2.1945 v -2.19449 h -18.594446 -18.594437 v 2.19449 c 0,1.20698 0.0191,2.1945 0.04256,2.1945 0.02345,0 0.485137,-0.21684 1.026104,-0.48188 z m 40.968156,-8.85693 -0.02889,-3.48683 -0.306777,-0.64871 c -0.389338,-0.82326 -0.949842,-1.38482 -1.771594,-1.77486 l -0.647514,-0.30736 h -20.687544 -20.687534 l -0.632789,0.3021 c -0.822187,0.39252 -1.404465,0.97265 -1.785969,1.77941 l -0.307127,0.64942 -0.0289,3.48683 -0.02889,3.48682 h 23.47127 23.471273 z m -21.822669,1.58945 c -0.206831,-0.0745 -0.507938,-0.25957 -0.669118,-0.41134 -0.505799,-0.4762 -0.561158,-0.73561 -0.561158,-2.62941 0,-1.66322 0.0085,-1.74081 0.24252,-2.14038 0.133387,-0.22802 0.407195,-0.51718 0.608453,-0.64254 l 0.365944,-0.22794 8.372362,-0.0294 c 5.866087,-0.0206 8.482137,0.002 8.739056,0.0775 0.503356,0.14679 1.000958,0.61022 1.191275,1.10946 0.129831,0.3406 0.153297,0.72262 0.128006,2.08441 l -0.03095,1.66738 -0.292052,0.41384 c -0.160636,0.22762 -0.467292,0.50553 -0.681474,0.61759 -0.385131,0.20151 -0.481015,0.204 -8.713099,0.22496 -6.895794,0.0176 -8.3882,-0.002 -8.69974,-0.11422 z m 16.786458,-1.42221 c 0.173113,-0.0928 0.188298,-0.21709 0.188298,-1.54102 0,-0.99 -0.03651,-1.47664 -0.116787,-1.5571 -0.146927,-0.14721 -16.298431,-0.16847 -16.530554,-0.0218 -0.225861,0.14274 -0.27133,2.65028 -0.05404,2.98245 l 0.155921,0.23841 h 8.084457 c 5.386656,0 8.147311,-0.0337 8.272779,-0.10102 z m -33.819832,1.23418 c -0.884449,-0.24758 -1.788386,-1.09908 -2.008069,-1.89155 -0.179883,-0.64888 -0.123835,-1.57972 0.127692,-2.12087 0.316364,-0.68063 1.103466,-1.36972 1.794383,-1.57094 1.323222,-0.38539 2.765624,0.23553 3.406972,1.46661 0.216479,0.41552 0.259095,0.62466 0.261477,1.28302 0.0024,0.6859 -0.03482,0.86032 -0.290952,1.36268 -0.603024,1.18249 -2.035427,1.82267 -3.291503,1.47105 z m 1.393621,-1.55016 c 1.211028,-0.64159 0.933412,-2.45147 -0.409528,-2.6698 -0.48949,-0.0796 -0.790971,0.013 -1.192435,0.36614 -0.98535,0.86675 -0.372824,2.43914 0.979414,2.51423 0.112071,0.006 0.392203,-0.0885 0.622549,-0.21057 z m 6.205976,1.5834 c -1.792932,-0.44586 -2.75299,-2.36586 -2.001819,-4.00335 0.511735,-1.1155 1.408104,-1.6984 2.611779,-1.6984 0.601997,0 0.827229,0.0477 1.283266,0.27212 1.647686,0.81063 2.122559,2.86834 1.009964,4.37632 -0.58553,0.79361 -1.952783,1.28966 -2.90319,1.05331 z m 1.242774,-1.55659 c 0.462299,-0.22421 0.827482,-0.78312 0.827482,-1.26646 0,-0.91584 -0.91876,-1.64625 -1.793957,-1.42619 -0.365751,0.0919 -0.904735,0.60778 -1.028885,0.98463 -0.21822,0.66244 0.161289,1.47746 0.822284,1.76591 0.416636,0.18181 0.708539,0.16741 1.173076,-0.0579 z"
       id="path852"
       inkscape:connector-curvature="0" />
    <path
       style="fill:#ff0000;stroke-width:0.29486936"
       d="m 116.51701,280.42767 c -0.0744,-0.49753 -0.0749,-1.38066 -6e-4,-1.9625 l 0.13441,-1.0579 -2.14196,-0.12427 c -1.96323,-0.11384 -2.19429,-0.20191 -2.76901,-1.05529 l -0.62704,-0.93108 V 254.5058 233.71495 l 0.62968,-0.93501 0.62969,-0.93502 h 23.39667 23.39667 l 0.62969,0.93502 0.62969,0.93501 v 20.66471 c 0,13.53583 -0.0927,20.88588 -0.26864,21.30585 -0.44606,1.06452 -1.671,1.64777 -3.46063,1.64777 h -1.66789 l 0.0167,1.91617 0.0167,1.91619 -2.66681,0.0949 -2.66681,0.0949 v -2.01115 -2.01115 h -13.95872 -13.95871 v 1.99949 1.99949 h -2.5787 -2.57869 l -0.13538,-0.90462 z m 17.05133,-8.40958 c 3.61773,-1.4348 7.03318,-5.0203 8.78,-9.21715 3.4057,-8.18241 1.39473,-18.16289 -4.71053,-23.37847 -2.97558,-2.54197 -4.84725,-3.2435 -8.65299,-3.24324 -2.37144,1.6e-4 -3.47903,0.15128 -4.56594,0.62298 -2.49226,1.0816 -4.48533,2.63534 -6.25003,4.87233 -2.84637,3.60818 -4.18918,7.72265 -4.18329,12.81795 0.006,5.14591 1.20728,8.77549 4.15065,12.54035 2.22713,2.84872 4.71392,4.64178 7.58723,5.47063 2.15765,0.62243 5.58655,0.41027 7.8449,-0.48538 z m -7.32477,-2.99413 c -1.75738,-0.68278 -2.60742,-1.60961 -2.60742,-2.84298 0,-0.23863 0.88761,-1.53853 1.97246,-2.88868 1.92386,-2.3943 2.01227,-2.46026 3.58752,-2.67667 0.88828,-0.12204 1.85926,-0.32031 2.15773,-0.44059 0.49469,-0.1994 0.5812,0.005 0.97841,2.31413 0.60217,3.50021 0.56481,4.39248 -0.22295,5.32496 -1.09202,1.29264 -4.07111,1.90709 -5.86575,1.20983 z m 9.63946,-10.33613 c -1.78038,-2.36012 -1.96278,-2.72407 -1.87061,-3.73254 0.0562,-0.61459 -0.0782,-1.78607 -0.29866,-2.60331 -0.22044,-0.81724 -0.37666,-1.50686 -0.34714,-1.53246 0.31591,-0.27411 3.79086,-1.14583 4.56757,-1.14583 1.64948,0 2.62876,2.09492 2.64824,5.66522 0.0181,3.30702 -1.00894,6.02717 -2.2582,5.98124 -0.25765,-0.01 -1.35619,-1.194 -2.4412,-2.63232 z m -17.28424,0.0547 c -1.63736,-2.31086 -1.63736,-8.16205 0,-10.47292 0.74086,-1.04562 1.37408,-0.67732 3.41666,1.98729 1.77583,2.31662 1.97333,2.70282 1.91725,3.74906 -0.0344,0.64149 0.11619,1.81007 0.33463,2.59687 0.45207,1.62829 0.58116,1.47998 -1.93573,2.22395 -2.23941,0.66192 -3.21979,0.63981 -3.73281,-0.0842 z m 8.77199,-1.05428 c -1.05662,-0.82287 -1.38643,-1.6223 -1.38643,-3.36048 0,-1.13443 0.16217,-1.59536 0.88709,-2.52127 0.75084,-0.959 1.07081,-1.13303 2.08317,-1.13303 1.59683,0 2.73973,1.2399 2.94499,3.19494 0.35353,3.3672 -2.26938,5.5795 -4.52882,3.81984 z m -1.73344,-11.0971 c -0.82387,-4.49917 -0.51434,-5.61366 1.83403,-6.60357 1.42982,-0.60271 4.50994,-0.24155 5.65612,0.66324 1.66567,1.31486 1.55397,2.01234 -0.78656,4.91177 -2.00355,2.48198 -2.08004,2.53977 -3.26871,2.46995 -0.70133,-0.0412 -1.55277,0.15019 -2.0091,0.4516 -0.43557,0.28767 -0.83502,0.52306 -0.88766,0.52306 -0.0526,0 -0.29479,-1.08723 -0.53812,-2.41605 z m 31.82411,18.41191 c 0.0205,-4.30723 -0.0181,-8.24372 -0.086,-8.74777 l -0.12334,-0.91644 h -4.80611 -4.80612 v 8.83843 8.83844 l 4.89208,-0.0906 4.89207,-0.0906 z m 0.8306,-16.59745 c 0.18105,-1.63122 -0.14859,-1.7312 -5.70814,-1.7312 -4.34996,0 -5.2325,0.0828 -5.57763,0.52369 -0.2255,0.28801 -0.41,0.7079 -0.41,0.93308 0,1.11484 0.58434,1.22289 6.12338,1.13231 l 5.48714,-0.0897 z m -0.11479,-3.814 c 0.20975,-0.42508 0.20976,-0.74129 2e-5,-1.16637 -0.25553,-0.51787 -0.86251,-0.59332 -5.41937,-0.67356 -5.28633,-0.0931 -6.16163,0.0775 -6.16163,1.20183 0,1.31064 0.42709,1.40452 5.96481,1.31112 4.74465,-0.0799 5.35992,-0.15372 5.61617,-0.67302 z m -0.11284,-3.7307 c 0.17209,-0.26484 0.27452,-0.8272 0.22763,-1.24967 l -0.0853,-0.76815 -5.4459,-0.0902 c -5.47329,-0.0906 -6.16462,0.0335 -6.16462,1.10694 0,0.23941 0.1845,0.67093 0.41,0.95896 0.5848,0.74693 10.57544,0.78501 11.05814,0.0421 z m -0.14362,-3.95267 c 0.28646,-0.26755 0.43133,-0.74904 0.376,-1.24968 l -0.09,-0.81445 -5.44589,-0.0902 c -5.4733,-0.0906 -6.16463,0.0334 -6.16463,1.10695 0,0.2394 0.1845,0.67092 0.41,0.95895 0.34432,0.43977 1.21418,0.52366 5.42926,0.52366 3.71842,0 5.14003,-0.11286 5.48526,-0.43522 z"
       id="path848"
       inkscape:connector-curvature="0" />
  </g>
</svg>
